<svg xmlns="http://www.w3.org/2000/svg" version="1.1" xmlns:xlink="http://www.w3.org/1999/xlink" xmlns:svgjs="http://svgjs.dev/svgjs" viewBox="0 0 800 800"><defs><filter id="llleaves-blur-2" x="-100%" y="-100%" width="400%" height="400%"><feGaussianBlur in="SourceGraphic" stdDeviation="2"></feGaussianBlur></filter><filter id="llleaves-blur-3" x="-100%" y="-100%" width="400%" height="400%"><feGaussianBlur in="SourceGraphic" stdDeviation="4"></feGaussianBlur></filter><filter id="llleaves-blur-4" x="-100%" y="-100%" width="400%" height="400%"><feGaussianBlur in="SourceGraphic" stdDeviation="12"></feGaussianBlur></filter></defs><g fill="hsl(190, 100%, 70%)"><path d="M214 231H264C292 231 314 253 314 281H264C236 281 214 259 214 231Z " transform="matrix(-0.03529397647259804,-0.5047273784068654,0.5047273784068654,-0.03529397647259804,144.10740091660836,398.28328587639766)" opacity="0.78"></path><path d="M320 417H370C398 417 420 439 420 467H370C342 467 320 445 320 417Z " transform="matrix(-0.20056006211781865,-0.4301024411894884,0.4301024411894884,-0.20056006211781865,254.10194397783903,689.7854506961866)" opacity="0.73"></path><path d="M713 350H763C791 350 813 372 813 400H763C735 400 713 378 713 350Z " transform="matrix(0.049049335125748154,0.2124560117468566,-0.2124560117468566,0.049049335125748154,805.2463617041253,194.50256236499285)" filter="url(#llleaves-blur-3)" opacity="0.33"></path><path d="M205 736H255C283 736 305 758 305 786H255C227 786 205 764 205 736Z " transform="matrix(-0.03529397647259804,-0.5047273784068654,0.5047273784068654,-0.03529397647259804,-120.09757096711212,916.5641975893978)" opacity="0.78"></path><path d="M383 384H433C461 384 483 406 483 434H433C405 434 383 412 383 384Z " transform="matrix(-0.3133677342634229,-0.3133677342634228,0.3133677342634228,-0.3133677342634229,440.5208256223222,672.855632249802)" opacity="0.68"></path><path d="M433 522H483C511 522 533 544 533 572H483C455 572 433 550 433 522Z " transform="matrix(-0.3826685406278725,-0.13176334527543468,0.13176334527543468,-0.3826685406278725,595.7543552575996,819.9613874914812)" opacity="0.62"></path><path d="M-15 257H35C63 257 85 279 85 307H35C7 307 -15 285 -15 257Z " transform="matrix(-0.383776207907432,-0.11733216157115954,0.11733216157115954,-0.383776207907432,15.344497713693126,394.33151628488645)" opacity="0.62"></path><path d="M-7 173H43C71 173 93 195 93 223H43C15 223 -7 201 -7 173Z " transform="matrix(-0.383776207907432,-0.11733216157115954,0.11733216157115954,-0.383776207907432,36.27060894892998,279.03297211323144)" opacity="0.62"></path><path d="M296 586H346C374 586 396 608 396 636H346C318 636 296 614 296 586Z " transform="matrix(-0.12684869176526872,-0.473405762541627,0.473405762541627,-0.12684869176526872,100.6387264378489,852.3029445079819)" opacity="0.75"></path><path d="M308 117H358C386 117 408 139 408 167H358C330 167 308 145 308 117Z " transform="matrix(-0.008926229718259484,-0.5113833580664308,0.5113833580664308,-0.008926229718259484,288.57915339370373,326.3427668077751)" opacity="0.79"></path><path d="M543 607H593C621 607 643 629 643 657H593C565 657 543 635 543 607Z " transform="matrix(-0.22151784765477786,0.21391729889964245,-0.21391729889964245,-0.22151784765477786,859.5558165638573,645.1463214703316)" filter="url(#llleaves-blur-2)" opacity="0.47"></path><path d="M252 169H302C330 169 352 191 352 219H302C274 219 252 197 252 169Z " transform="matrix(-0.06966667156520809,-0.4957041255143683,0.4957041255143683,-0.06966667156520809,226.87273446290538,357.2179801889896)" opacity="0.77"></path><path d="M415 13H465C493 13 515 35 515 63H465C437 63 415 41 415 13Z " transform="matrix(-0.14993184555893013,-0.46144277277502166,0.46144277277502166,-0.14993184555893013,517.1834828194517,258.26829947162446)" opacity="0.75"></path><path d="M134 245H184C212 245 234 267 234 295H184C156 295 134 273 134 245Z " transform="matrix(-0.10260560442587913,-0.4827214159832256,0.4827214159832256,-0.10260560442587913,72.54464889889084,386.52425373590086)" opacity="0.76"></path><path d="M384 255H434C462 255 484 277 484 305H434C406 305 384 283 384 255Z " transform="matrix(-0.34418743834160853,-0.2593638381568247,0.2593638381568247,-0.34418743834160853,510.75547355634717,488.9363884957123)" opacity="0.66"></path><path d="M682 72H732C760 72 782 94 782 122H732C704 122 682 100 682 72Z " transform="matrix(-0.0484978117075347,0.24949961198576956,-0.24949961198576956,-0.0484978117075347,791.7018605325351,-80.92942823795246)" filter="url(#llleaves-blur-3)" opacity="0.39"></path><path d="M56 738H106C134 738 156 760 156 788H106C78 788 56 766 56 738Z " transform="matrix(-0.2953505153917892,-0.3397619019631565,0.3397619019631565,-0.2953505153917892,-121.93117656635874,1024.3672048520298)" opacity="0.69"></path><path d="M365 735H415C443 735 465 757 465 785H415C387 785 365 763 365 735Z " transform="matrix(-0.2798668113756917,-0.3582131833488756,0.3582131833488756,-0.2798668113756917,258.9027073757666,1121.357247735309)" opacity="0.70"></path><path d="M451 403H501C529 403 551 425 551 453H501C473 453 451 431 451 403Z " transform="matrix(-0.37685513373346746,-0.0065780308278496746,0.0065780308278496746,-0.37685513373346746,686.9890248061474,592.5895906826767)" filter="url(#llleaves-blur-2)" opacity="0.58"></path><path d="M54 380H104C132 380 154 402 154 430H104C76 430 54 408 54 380Z " transform="matrix(-0.2953505153917892,-0.3397619019631565,0.3397619019631565,-0.2953505153917892,-2.887116694332292,559.9521965378428)" opacity="0.69"></path><path d="M515 535H565C593 535 615 557 615 585H565C537 585 515 563 515 535Z " transform="matrix(-0.30087910098207205,0.1467485427673552,-0.1467485427673552,-0.30087910098207205,817.1758760045897,645.5793698864047)" filter="url(#llleaves-blur-2)" opacity="0.51"></path><path d="M635 238H685C713 238 735 260 735 288H685C657 288 635 266 635 238Z " transform="matrix(-0.01697249206937968,0.2427179446288887,-0.2427179446288887,-0.01697249206937968,760.4609765049228,101.20197334345809)" filter="url(#llleaves-blur-3)" opacity="0.37"></path><path d="M158 656H208C236 656 258 678 258 706H208C180 706 158 684 158 656Z " transform="matrix(-0.0780092005402012,-0.49253070806928395,0.49253070806928395,-0.0780092005402012,-111.18749848282056,836.5706528462881)" opacity="0.77"></path><path d="M86 157H136C164 157 186 179 186 207H136C108 207 86 185 86 157Z " transform="matrix(-0.20032884241667048,-0.4296065889402181,0.4296065889402181,-0.20032884241667048,85.0563233815475,276.88634541570366)" opacity="0.73"></path><path d="M88 11H138C166 11 188 33 188 61H138C110 61 88 39 88 11Z " transform="matrix(-0.1265656345226393,-0.47234937853068365,0.47234937853068365,-0.1265656345226393,138.46147993701962,105.74057708004936)" opacity="0.75"></path><path d="M575 468H625C653 468 675 490 675 518H625C597 518 575 496 575 468Z " transform="matrix(-0.1416462281530419,0.24533846386156177,-0.24533846386156177,-0.1416462281530419,834.4807552794011,409.49505056597354)" filter="url(#llleaves-blur-3)" opacity="0.43"></path><path d="M246 668H296C324 668 346 690 346 718H296C268 718 246 696 246 668Z " transform="matrix(-0.05265884604977751,-0.5010154530563831,0.5010154530563831,-0.05265884604977751,-35.61669053733931,877.7931544171852)" opacity="0.77"></path><path d="M485 468H535C563 468 585 490 585 518H535C507 518 485 496 485 468Z " transform="matrix(-0.3334474220745698,0.10194510758149188,-0.10194510758149188,-0.3334474220745698,763.6533088475704,602.8489465266647)" filter="url(#llleaves-blur-2)" opacity="0.53"></path><path d="M348 64H398C426 64 448 86 448 114H398C370 114 348 92 348 64Z " transform="matrix(0.018004904333933813,-0.515593000841189,0.515593000841189,0.018004904333933813,344.94627100022853,292.6035778490731)" opacity="0.79"></path><path d="M261 20H311C339 20 361 42 361 70H311C283 70 261 48 261 20Z " transform="matrix(0.22319635781371966,-0.5013072274510975,0.5013072274510975,0.22319635781371966,219.0271074846338,190.86271163567392)" opacity="0.84"></path><path d="M716 651H766C794 651 816 673 816 701H766C738 701 716 679 716 651Z " transform="matrix(0.049049335125748154,0.2124560117468566,-0.2124560117468566,0.049049335125748154,872.0484732345519,480.1013444569021)" filter="url(#llleaves-blur-3)" opacity="0.33"></path><path d="M120 420H170C198 420 220 442 220 470H170C142 470 120 448 120 420Z " transform="matrix(-0.14240164623989454,-0.4657747974802107,0.4657747974802107,-0.14240164623989454,-13.061505017911685,587.550448148389)" opacity="0.75"></path><path d="M168 163H218C246 163 268 185 268 213H218C190 213 168 191 168 163Z " transform="matrix(-0.061238279568798216,-0.4987457634614526,0.4987457634614526,-0.061238279568798216,137.5857414152449,308.23937299353076)" opacity="0.77"></path><path d="M-17 510H33C61 510 83 532 83 560H33C5 560 -17 538 -17 510Z " transform="matrix(-0.3834173419392877,-0.06072734111377539,0.06072734111377539,-0.3834173419392877,13.16364478812666,742.1322801942736)" filter="url(#llleaves-blur-2)" opacity="0.60"></path><path d="M341 323H391C419 323 441 345 441 373H391C363 373 341 351 341 323Z " transform="matrix(-0.23953437384172852,-0.39865214370246704,0.39865214370246704,-0.23953437384172852,345.9269941636573,587.2309502845861)" opacity="0.71"></path><path d="M484 147H534C562 147 584 169 584 197H534C506 197 484 175 484 147Z " transform="matrix(-0.35411729775921635,0.062440433930523065,-0.062440433930523065,-0.35411729775921635,733.8383916394715,199.56498349568588)" filter="url(#llleaves-blur-2)" opacity="0.55"></path><path d="M709 572H759C787 572 809 594 809 622H759C731 622 709 600 709 572Z " transform="matrix(0.049049335125748154,0.2124560117468566,-0.2124560117468566,0.049049335125748154,848.6077936524307,406.4634340140642)" filter="url(#llleaves-blur-3)" opacity="0.33"></path><path d="M373 573H423C451 573 473 595 473 623H423C395 623 373 601 373 573Z " transform="matrix(-0.3133677342634229,-0.3133677342634228,0.3133677342634228,-0.3133677342634229,368.16064650390103,917.9484566829547)" opacity="0.68"></path><path d="M465 72H515C543 72 565 94 565 122H515C487 122 465 100 465 72Z " transform="matrix(-0.3442251064964484,-0.2593922231474642,0.2593922231474642,-0.3442251064964484,667.1148842003669,263.9768302510995)" opacity="0.66"></path><path d="M203 305H253C281 305 303 327 303 355H253C225 355 203 333 203 305Z " transform="matrix(-0.03529397647259804,-0.5047273784068654,0.5047273784068654,-0.03529397647259804,95.36934117330168,469.3430389728943)" opacity="0.78"></path><path d="M650 502H700C728 502 750 524 750 552H700C672 552 650 530 650 502Z " transform="matrix(-0.01697249206937968,0.2427179446288887,-0.2427179446288887,-0.01697249206937968,839.7931012679901,366.041942080341)" filter="url(#llleaves-blur-3)" opacity="0.37"></path><path d="M496 7H546C574 7 596 29 596 57H546C518 57 496 35 496 7Z " transform="matrix(-0.36894735292247766,-0.19617278733541768,0.19617278733541768,-0.36894735292247766,741.1677255009395,150.91665717865732)" opacity="0.64"></path><path d="M487 669H537C565 669 587 691 587 719H537C509 719 487 697 487 669Z " transform="matrix(-0.3334474220745698,0.10194510758149188,-0.10194510758149188,-0.3334474220745698,786.8111703155994,870.6679881484903)" filter="url(#llleaves-blur-2)" opacity="0.53"></path><path d="M130 734H180C208 734 230 756 230 784H180C152 784 130 762 130 734Z " transform="matrix(-0.14240164623989454,-0.4657747974802107,0.4657747974802107,-0.14240164623989454,-147.89077496429888,950.9223130425178)" opacity="0.75"></path><path d="M550 211H600C628 211 650 233 650 261H600C572 261 550 239 550 211Z " transform="matrix(-0.18180263000766628,0.2326967549890068,-0.2326967549890068,-0.18180263000766628,763.9980121820053,139.28736768840514)" filter="url(#llleaves-blur-3)" opacity="0.45"></path><path d="M-14 341H36C64 341 86 363 86 391H36C8 391 -14 369 -14 341Z " transform="matrix(-0.383776207907432,-0.11733216157115954,0.11733216157115954,-0.383776207907432,6.872372349623156,510.68604991068185)" opacity="0.62"></path><path d="M389 465H439C467 465 489 487 489 515H439C411 515 389 493 389 465Z " transform="matrix(-0.34418743834160853,-0.2593638381568247,0.2593638381568247,-0.34418743834160853,463.01000473512204,772.5125697382341)" opacity="0.66"></path><path d="M591 545H641C669 545 691 567 691 595H641C613 595 591 573 591 545Z " transform="matrix(-0.10628832164811598,0.2503995940141502,-0.2503995940141502,-0.10628832164811598,851.8585827645079,470.07820357635586)" filter="url(#llleaves-blur-3)" opacity="0.42"></path><path d="M573 673H623C651 673 673 695 673 723H623C595 723 573 701 573 673Z " transform="matrix(-0.1416462281530419,0.24533846386156177,-0.24533846386156177,-0.1416462281530419,882.4918479147152,644.0232042650703)" filter="url(#llleaves-blur-3)" opacity="0.43"></path><path d="M712 195H762C790 195 812 217 812 245H762C734 245 712 223 712 195Z " transform="matrix(0.049049335125748154,0.2124560117468566,-0.2124560117468566,0.049049335125748154,771.3647292184884,47.31766532123066)" filter="url(#llleaves-blur-3)" opacity="0.33"></path><path d="M646 321H696C724 321 746 343 746 371H696C668 371 646 349 646 321Z " transform="matrix(-0.01697249206937968,0.2427179446288887,-0.2427179446288887,-0.01697249206937968,791.7932633218837,182.94079279429886)" filter="url(#llleaves-blur-3)" opacity="0.37"></path><path d="M585 363H635C663 363 685 385 685 413H635C607 413 585 391 585 363Z " transform="matrix(-0.10628832164811598,0.2503995940141502,-0.2503995940141502,-0.10628832164811598,799.6481267240438,270.23612660048366)" filter="url(#llleaves-blur-3)" opacity="0.42"></path><path d="M506 340H556C584 340 606 362 606 390H556C528 390 506 368 506 340Z " transform="matrix(-0.30087910098207205,0.1467485427673552,-0.1467485427673552,-0.30087910098207205,776.8519982561165,393.22868207980684)" filter="url(#llleaves-blur-2)" opacity="0.51"></path><path d="M180 473H230C258 473 280 495 280 523H230C202 523 180 501 180 473Z " transform="matrix(-0.061238279568798216,-0.4987457634614526,0.4987457634614526,-0.061238279568798216,-4.290585902979814,643.2081888213957)" opacity="0.77"></path><path d="M429 319H479C507 319 529 341 529 369H479C451 369 429 347 429 319Z " transform="matrix(-0.3826685406278725,-0.13176334527543468,0.13176334527543468,-0.3826685406278725,616.9716401860014,538.7526203629213)" opacity="0.62"></path><path d="M708 737H758C786 737 808 759 808 787H758C730 787 708 765 708 737Z " transform="matrix(0.049049335125748154,0.2124560117468566,-0.2124560117468566,0.049049335125748154,882.7120849257876,563.5827497300626)" filter="url(#llleaves-blur-3)" opacity="0.33"></path><path d="M639 161H689C717 161 739 183 739 211H689C661 211 639 189 639 161Z " transform="matrix(-0.01697249206937968,0.2427179446288887,-0.2427179446288887,-0.01697249206937968,745.8395847367759,21.924219675600312)" filter="url(#llleaves-blur-3)" opacity="0.37"></path><path d="M616 743H666C694 743 716 765 716 793H666C638 793 616 771 616 743Z " transform="matrix(-0.07209770375981507,0.25143457345974224,-0.25143457345974224,-0.07209770375981507,907.1188231211188,655.9156105633497)" filter="url(#llleaves-blur-3)" opacity="0.40"></path><path d="M537 76H587C615 76 637 98 637 126H587C559 126 537 104 537 76Z " transform="matrix(-0.3339849382409366,0.10210944276533027,-0.10210944276533027,-0.3339849382409366,793.3622124667282,74.79423585908573)" filter="url(#llleaves-blur-2)" opacity="0.54"></path><path d="M491 269H541C569 269 591 291 591 319H541C513 319 491 297 491 269Z " transform="matrix(-0.3334474220745698,0.10194510758149188,-0.10194510758149188,-0.3334474220745698,751.3669169713007,336.8812388883364)" filter="url(#llleaves-blur-2)" opacity="0.53"></path><path d="M-10 667H40C68 667 90 689 90 717H40C12 717 -10 695 -10 667Z " transform="matrix(-0.383776207907432,-0.11733216157115954,0.11733216157115954,-0.383776207907432,-25.842807490945134,962.2664223347894)" opacity="0.62"></path><path d="M574 11H624C652 11 674 33 674 61H624C596 61 574 39 574 11Z " transform="matrix(-0.31278265442185227,0.1327683597492682,-0.1327683597492682,-0.31278265442185227,823.9560373102094,-35.58728092435669)" filter="url(#llleaves-blur-2)" opacity="0.52"></path><path d="M-16 95H34C62 95 84 117 84 145H34C6 145 -16 123 -16 95Z " transform="matrix(-0.38208337156971756,-0.13156185541026924,0.13156185541026924,-0.38208337156971756,31.20341198413809,170.32310767231525)" opacity="0.62"></path><path d="M128 333H178C206 333 228 355 228 383H178C150 383 128 361 128 333Z " transform="matrix(-0.14240164623989454,-0.4657747974802107,0.4657747974802107,-0.14240164623989454,36.60011553278579,491.8877033053597)" opacity="0.75"></path><path d="M635 604H685C713 604 735 626 735 654H685C657 654 635 632 635 604Z " transform="matrix(-0.01697249206937968,0.2427179446288887,-0.2427179446288887,-0.01697249206937968,849.2957442390962,473.41390544085107)" filter="url(#llleaves-blur-3)" opacity="0.37"></path><path d="M-8 595H42C70 595 92 617 92 645H42C14 645 -8 623 -8 595Z " transform="matrix(-0.383776207907432,-0.11733216157115954,0.11733216157115954,-0.383776207907432,-14.627339442006779,862.8691996885965)" opacity="0.62"></path><path d="M640 414H690C718 414 740 436 740 464H690C662 464 640 442 640 414Z " transform="matrix(-0.01697249206937968,0.2427179446288887,-0.2427179446288887,-0.01697249206937968,808.2641972199541,278.9755422245245)" filter="url(#llleaves-blur-3)" opacity="0.37"></path><path d="M285 269H335C363 269 385 291 385 319H335C307 319 285 297 285 269Z " transform="matrix(-0.12684869176526872,-0.473405762541627,0.473405762541627,-0.12684869176526872,238.3130175541267,489.88444583043406)" opacity="0.75"></path><path d="M57 225H107C135 225 157 247 157 275H107C79 275 57 253 57 225Z " transform="matrix(-0.2953505153917892,-0.3397619019631565,0.3397619019631565,-0.2953505153917892,53.66202965613232,360.19215235800505)" opacity="0.69"></path><path d="M528 740H578C606 740 628 762 628 790H578C550 790 528 768 528 740Z " transform="matrix(-0.2630610752034873,0.18419734786703332,-0.18419734786703332,-0.2630610752034873,870.9602725858962,859.7756554635225)" filter="url(#llleaves-blur-2)" opacity="0.49"></path><path d="M177 13H227C255 13 277 35 277 63H227C199 63 177 41 177 13Z " transform="matrix(0.1383931536140034,-0.5164902807071443,0.5164902807071443,0.1383931536140034,175.95812346274974,149.9843538831896)" opacity="0.82"></path><path d="M718 497H768C796 497 818 519 818 547H768C740 547 718 525 718 497Z " transform="matrix(0.05538826520162844,0.2067118198755766,-0.2067118198755766,0.05538826520162844,833.3653823002003,334.33264790030717)" filter="url(#llleaves-blur-3)" opacity="0.33"></path><path d="M389 172H439C467 172 489 194 489 222H439C411 222 389 200 389 172Z " transform="matrix(-0.34418743834160853,-0.2593638381568247,0.2593638381568247,-0.34418743834160853,539.0036093150717,378.6656503041429)" opacity="0.66"></path><path d="M327 658H377C405 658 427 680 427 708H377C349 708 327 686 327 658Z " transform="matrix(-0.20056006211781865,-0.4301024411894884,0.4301024411894884,-0.20056006211781865,158.851176085997,982.1311427549073)" opacity="0.73"></path><path d="M319 503H369C397 503 419 525 419 553H369C341 553 319 531 319 503Z " transform="matrix(-0.20056006211781865,-0.4301024411894884,0.4301024411894884,-0.20056006211781865,215.9125739734252,792.6035135971294)" opacity="0.73"></path><path d="M564 144H614C642 144 664 166 664 194H614C586 194 564 172 564 144Z " transform="matrix(-0.21145147517744464,0.21896441244197823,-0.21896441244197823,-0.21145147517744464,780.8361914616453,70.29115006561351)" filter="url(#llleaves-blur-2)" opacity="0.47"></path><path d="M404 656H454C482 656 504 678 504 706H454C426 706 404 684 404 656Z " transform="matrix(-0.3691672648972465,-0.19628971660653755,0.19628971660653755,-0.3691672648972465,487.9286412542978,1021.5184387343929)" opacity="0.64"></path><path d="M571 286H621C649 286 671 308 671 336H621C593 336 571 314 571 286Z " transform="matrix(-0.1416462281530419,0.24533846386156177,-0.24533846386156177,-0.1416462281530419,785.2625699439848,202.69679089756616)" filter="url(#llleaves-blur-3)" opacity="0.43"></path><path d="M139 85H189C217 85 239 107 239 135H189C161 135 139 113 139 85Z " transform="matrix(-9.424897940340883e-17,-0.5130675471438167,0.5130675471438167,-9.424897940340883e-17,132.56256981418016,206.96976641018136)" opacity="0.79"></path><path d="M192 387H242C270 387 292 409 292 437H242C214 437 192 415 192 387Z " transform="matrix(-0.04400743475427806,-0.5030072809517551,0.5030072809517551,-0.04400743475427806,45.410799458412214,551.8588251090873)" opacity="0.78"></path><path d="M718 119H768C796 119 818 141 818 169H768C740 169 718 147 718 119Z " transform="matrix(0.04225049696119139,0.21735996381843842,-0.21735996381843842,0.04225049696119139,766.8514531236601,-29.016523774972285)" filter="url(#llleaves-blur-3)" opacity="0.34"></path><path d="M286 738H336C364 738 386 760 386 788H336C308 788 286 766 286 738Z " transform="matrix(-0.12684869176526872,-0.473405762541627,0.473405762541627,-0.12684869176526872,17.412563613868883,1018.8498880308866)" opacity="0.75"></path><path d="M95 598H145C173 598 195 620 195 648H145C117 648 95 626 95 598Z " transform="matrix(-0.21366143783715164,-0.41933418252052934,0.41933418252052934,-0.21366143783715164,-85.26428722390278,816.9145322380223)" opacity="0.72"></path><path d="M56 85H106C134 85 156 107 156 135H106C78 135 56 113 56 85Z " transform="matrix(-0.2572492665346878,-0.3813877217428584,0.3813877217428584,-0.2572492665346878,91.31577286096248,178.72451782355864)" opacity="0.71"></path><path d="M111 505H161C189 505 211 527 211 555H161C133 555 111 533 111 505Z " transform="matrix(-0.17958657744564915,-0.4444923768857533,0.4444923768857533,-0.17958657744564915,-45.66752078069973,696.7441587248004)" opacity="0.74"></path><path d="M443 737H493C521 737 543 759 543 787H493C465 787 443 765 443 737Z " transform="matrix(-0.38499999580684474,-0.06788588683339265,0.06788588683339265,-0.38499999580684474,631.0759521657293,1088.8377390136784)" filter="url(#llleaves-blur-2)" opacity="0.60"></path><path d="M614 85H664C692 85 714 107 714 135H664C636 135 614 113 614 85Z " transform="matrix(-0.176911455067646,0.2347694303328514,-0.2347694303328514,-0.176911455067646,807.2938435015305,-26.426641683572257)" filter="url(#llleaves-blur-3)" opacity="0.45"></path><path d="M240 524H290C318 524 340 546 340 574H290C262 574 240 552 240 524Z " transform="matrix(-0.05265884604977751,-0.5010154530563831,0.5010154530563831,-0.05265884604977751,30.213581626481187,723.204187867679)" opacity="0.77"></path><path d="M405 107H455C483 107 505 129 505 157H455C427 157 405 135 405 107Z " transform="matrix(-0.2631963175654026,-0.375883296312894,0.375883296312894,-0.2631963175654026,525.1377293789561,337.7688137409999)" opacity="0.70"></path><path d="M49 462H99C127 462 149 484 149 512H99C71 512 49 490 49 462Z " transform="matrix(-0.3260683732543333,-0.2935932819958193,0.2935932819958193,-0.3260683732543333,-11.699159379785016,674.8610326924464)" opacity="0.67"></path><path d="M720 15H770C798 15 820 37 820 65H770C742 65 720 43 720 15Z " transform="matrix(-0.004170101596205224,0.23890496044296639,-0.23890496044296639,-0.004170101596205224,782.7671766467967,-143.7900154772359)" filter="url(#llleaves-blur-3)" opacity="0.36"></path><path d="M267 354H317C345 354 367 376 367 404H317C289 404 267 382 267 354Z " transform="matrix(-0.09464219630363459,-0.486891891074112,0.486891891074112,-0.09464219630363459,162.4695495111637,569.214121869571)" opacity="0.76"></path></g></svg>